# xmcd CD database file
#
# Track frame offsets:
#	150
#	14035
#	29727
#	44640
#	70339
#	83996
#	94728
#	108921
#	121554
#	134766
#	147754
#	161849
#	172687
#	185401
#	200755
#	226637
#	238674
#	253652
#	267476
#	282115
#
# Disc length: 3924 seconds
#
# Revision: 1
# Processed by: cddbd v1.5.2PL0 Copyright (c) Steve Scherf et al.
# Submitted via: CDex 1.51
#
DISCID=230f5214
DTITLE=Various Artist - Jazz Disc 6
DYEAR=2001
DGENRE=Jazz
TTITLE0=Nat King Cole - Miss You So
TTITLE1=Artie Shaw - Moonglow
TTITLE2=Sarah Vaughan - Black Coffee
TTITLE3=Erroll Garner - Lover
TTITLE4=Frank Sinatra - You Go To My Head
TTITLE5=Bud Powell Trio - Off Minor
TTITLE6=Ella Fitzgerald - Time Alone Will Tell
TTITLE7=Miles Davis - Deception
TTITLE8=Sarah Vaughan - Mean To Me
TTITLE9=Coleman Hawkins - I Love You
TTITLE10=Frank Sinatra - September Song
TTITLE11=Bud Powell - Ornithology
TTITLE12=Ella Fitzgerald - Cry You Out Of My Heart
TTITLE13=Teddy Wilson and Benny Goodman - Where Or When
TTITLE14=Art Pepper - Yardbird Suite
TTITLE15=Oscar Peterson - Fine And Dandy
TTITLE16=Billie Holiday - Lover Come Back To Me
TTITLE17=Nat King Cole - Whatt'll I Do
TTITLE18=Johnny Mercer and Jo Stafford - Candy
TTITLE19=Eroll Garner - Laura
EXTD=YEAR: 2001
EXTT0=
EXTT1=
EXTT2=
EXTT3=
EXTT4=
EXTT5=
EXTT6=
EXTT7=
EXTT8=
EXTT9=
EXTT10=
EXTT11=
EXTT12=
EXTT13=
EXTT14=
EXTT15=
EXTT16=
EXTT17=
EXTT18=
EXTT19=
PLAYORDER=
